<svg width="91" height="22" viewBox="0 0 91 22" fill="none" xmlns="http://www.w3.org/2000/svg">
<path d="M27.374 17L23.036 4.13H25.772L28.04 11.582C28.292 12.428 28.598 13.634 28.598 13.634H28.634C28.634 13.634 28.94 12.41 29.192 11.582L31.442 4.13H34.088L29.75 17H27.374ZM35.117 17V4.13H44.585V6.326H37.727V9.206H43.739V11.348H37.727V14.822H44.639V17H35.117ZM46.2615 17V4.13H52.1655C54.6495 4.13 56.3055 5.57 56.3055 7.712C56.3055 9.224 55.6035 10.376 53.9475 10.826V10.88C55.1355 11.222 55.7475 11.906 55.9095 13.472C56.0895 15.29 56.0175 16.676 56.4675 16.874V17H53.9655C53.6415 16.856 53.6055 15.416 53.4975 14.03C53.3895 12.626 52.5975 11.834 50.9775 11.834H48.8715V17H46.2615ZM48.8715 6.236V9.818H51.6435C53.0655 9.818 53.7675 9.08 53.7675 8.054C53.7675 7.01 53.1015 6.236 51.7155 6.236H48.8715ZM57.1443 6.326V4.13H67.4943V6.326H63.6243V17H61.0143V6.326H57.1443ZM68.8142 17V4.13H78.2822V6.326H71.4242V9.206H77.4362V11.348H71.4242V14.822H78.3362V17H68.8142ZM79.1128 17L83.2708 10.268L79.4188 4.13H82.3528L84.7288 8.198H84.7648L87.1408 4.13H89.9848L86.2048 10.25L90.4708 17H87.4288L84.8008 12.302H84.7648L82.1008 17H79.1128Z" fill="white"/>
<path d="M0 3.62842L-5.84487e-07 16.9999L5.58251 16.9999L-2.92244e-07 10.3142L5.58251 3.62842L0 3.62842Z" fill="white"/>
<path d="M13.6659 17L13.6659 3.62849L8.08334 3.62849L13.6659 10.3142L8.08334 17L13.6659 17Z" fill="white"/>
</svg>
